<?xml version="1.0" encoding="UTF-8" standalone="no"?>
<!DOCTYPE svg PUBLIC "-//W3C//DTD SVG 1.1//EN" "http://www.w3.org/Graphics/SVG/1.1/DTD/svg11.dtd">
<svg version="1.1" xmlns="http://www.w3.org/2000/svg" xmlns:xlink="http://www.w3.org/1999/xlink" preserveAspectRatio="xMidYMid meet" viewBox="0 0 640 640" width="640" height="640"><defs><path d="M328.92 34.73C295.37 15.15 258.73 5.36 219 5.36C179.27 5.36 142.62 15.15 109.07 34.73C75.52 54.31 48.95 80.88 29.37 114.43C9.79 147.98 0 184.62 0 224.35C0 272.07 13.92 314.98 41.77 353.09C69.62 391.21 105.6 417.58 149.7 432.22C154.84 433.17 158.64 432.5 161.11 430.23C163.58 427.95 164.81 425.09 164.81 421.68C164.81 421.11 164.76 415.98 164.67 406.28C164.57 396.58 164.53 388.12 164.53 380.9C163.87 381.02 158.62 381.93 157.97 382.04C153.79 382.81 148.51 383.13 142.14 383.04C135.77 382.95 129.17 382.28 122.32 381.04C115.48 379.81 109.11 376.96 103.22 372.49C97.33 368.03 93.15 362.18 90.67 354.96C90.39 354.3 88.11 349.05 87.82 348.4C85.92 344.03 82.93 339.18 78.84 333.86C74.75 328.53 70.62 324.92 66.44 323.02C66.24 322.88 64.64 321.74 64.44 321.59C63.11 320.64 61.88 319.5 60.73 318.17C59.59 316.84 58.74 315.51 58.17 314.18C57.6 312.84 58.07 311.75 59.6 310.89C61.12 310.03 63.87 309.62 67.86 309.62C68.44 309.7 73 310.38 73.57 310.47C77.37 311.23 82.07 313.51 87.68 317.31C93.29 321.11 97.9 326.05 101.51 332.13C105.88 339.93 111.15 345.87 117.34 349.96C123.51 354.05 129.74 356.09 136.01 356.09C142.28 356.09 147.7 355.61 152.27 354.67C156.82 353.72 161.1 352.29 165.1 350.39C166.81 337.64 171.47 327.86 179.07 321.01C168.23 319.88 158.49 318.16 149.84 315.88C141.19 313.6 132.26 309.89 123.04 304.75C113.81 299.62 106.16 293.25 100.08 285.65C94 278.05 89.01 268.06 85.11 255.71C81.22 243.35 79.27 229.1 79.27 212.94C79.27 189.93 86.78 170.35 101.8 154.19C94.76 136.9 95.43 117.51 103.79 96.03C109.3 94.31 117.48 95.6 128.32 99.88C139.15 104.15 147.09 107.82 152.13 110.86C157.17 113.89 161.2 116.47 164.25 118.55C181.93 113.61 200.18 111.14 218.99 111.14C237.81 111.14 256.07 113.61 273.75 118.55C274.83 117.87 283.5 112.4 284.58 111.71C291.99 107.15 300.74 102.97 310.81 99.16C320.89 95.36 328.59 94.32 333.92 96.03C342.47 117.51 343.23 136.9 336.19 154.2C351.21 170.36 358.73 189.94 358.73 212.94C358.73 229.1 356.77 243.4 352.88 255.85C348.98 268.31 343.95 278.28 337.77 285.79C331.59 293.31 323.89 299.63 314.67 304.76C305.45 309.89 296.51 313.6 287.87 315.88C279.21 318.16 269.47 319.88 258.64 321.02C268.52 329.57 273.46 343.07 273.46 361.51C273.46 367.52 273.46 415.65 273.46 421.67C273.46 425.09 274.65 427.94 277.03 430.22C279.41 432.5 283.16 433.17 288.29 432.21C332.4 417.58 368.38 391.2 396.22 353.09C424.07 314.97 438 272.06 438 224.34C437.99 184.62 428.19 147.98 408.62 114.43C389.04 80.88 362.47 54.31 328.92 34.73Z" id="dlumcYswt"></path></defs><g><g><g><use xlink:href="#dlumcYswt" opacity="1" fill="#ffffff" fill-opacity="1"></use><g><use xlink:href="#dlumcYswt" opacity="1" fill-opacity="0" stroke="#000000" stroke-width="1" stroke-opacity="0"></use></g></g></g></g></svg>